<svg width="64" height="64" viewBox="0 0 64 64" fill="none" xmlns="http://www.w3.org/2000/svg">
  <!-- Background -->
  <rect width="64" height="64" fill="#667eea" stroke="#333" stroke-width="3"/>
  <rect x="6" y="6" width="52" height="52" fill="#764ba2" stroke="#fff" stroke-width="2"/>
  
  <!-- GitHub cat icon exactly as in your reference, just recolored -->
  <g transform="translate(12, 12)">
    <!-- Main circular background -->
    <circle cx="20" cy="20" r="20" fill="#fff"/>
    
    <!-- GitHub cat silhouette - exact shape from your reference -->
    <path d="M20 2 C29.33 2 37 9.67 37 19 C37 26.22 32.87 32.35 26.84 34.93 C26.84 33.85 26.84 32.34 26.84 31.15 C26.84 29.54 26.26 28.39 25.57 27.81 C29.36 27.4 33.34 25.95 33.34 19.85 C33.34 17.87 32.65 16.28 31.48 15.03 C31.67 14.61 32.23 12.78 31.3 10.42 C31.3 10.42 29.94 10 26.85 12 C25.42 11.63 23.89 11.44 22.38 11.44 C20.87 11.44 19.34 11.63 17.91 12 C14.82 10 13.46 10.42 13.46 10.42 C12.53 12.78 13.09 14.61 13.28 15.03 C12.11 16.28 11.42 17.87 11.42 19.85 C11.42 25.94 15.39 27.4 19.17 27.82 C18.61 28.32 18.13 29.24 17.96 30.52 C17.06 30.95 14.64 31.73 13.26 28.91 C13.26 28.91 12.44 27.35 10.82 27.22 C10.82 27.22 9.24 27.2 10.73 28.18 C10.73 28.18 11.81 28.71 12.52 30.71 C12.52 30.71 13.48 34.16 17.92 33.15 C17.92 34.53 17.92 35.68 17.92 35.68 C11.89 33.1 7.76 27.02 7.76 19.85 C7.76 9.67 11.43 2 20.76 2 Z" fill="#667eea"/>
  </g>
</svg>