<svg width="64" height="64" viewBox="0 0 64 64" fill="none" xmlns="http://www.w3.org/2000/svg">
  <!-- Background retro box -->
  <rect width="64" height="64" fill="#667eea" stroke="#333" stroke-width="3"/>
  <rect x="6" y="6" width="52" height="52" fill="#764ba2" stroke="#fff" stroke-width="2"/>
  
  <!-- Original GitHub logo exactly as you sent -->
  <g transform="translate(12, 12)">
    <circle cx="20" cy="20" r="20" fill="#667eea"/>
    <path d="M20 0C8.954 0 0 8.954 0 20c0 8.837 5.582 16.33 13.317 18.974.973.18 1.327-.422 1.327-.938 0-.463-.017-1.69-.026-3.316-5.56 1.209-6.734-2.68-6.734-2.68-.885-2.248-2.162-2.847-2.162-2.847-1.769-1.209.133-1.185.133-1.185 1.955.137 2.983 2.008 2.983 2.008 1.738 2.979 4.558 2.118 5.67 1.62.176-1.259.68-2.118 1.236-2.605-4.318-.491-8.856-2.159-8.856-9.615 0-2.124.758-3.861 2.001-5.22-.2-.492-.867-2.472.19-5.148 0 0 1.632-.523 5.348 1.995 1.551-.431 3.214-.646 4.867-.654 1.65.008 3.315.223 4.869.654 3.713-2.518 5.344-1.995 5.344-1.995 1.059 2.676.392 4.656.193 5.148 1.245 1.359 2.998 3.096 2.998 5.22 0 7.474-4.548 9.119-8.88 9.598.698.602 1.32 1.79 1.32 3.607 0 2.605-.024 4.704-.024 5.345 0 .521.349 1.126 1.335.935C34.425 36.324 40 28.835 40 20 40 8.954 31.046 0 20 0z" fill="#fff"/>
  </g>
</svg>